<svg id="Capa_1" enable-background="new 0 0 512 512" height="512" viewBox="0 0 512 512" width="512" xmlns="http://www.w3.org/2000/svg"><g><g><path d="m432 144h-8v-24c0-4.418-3.582-8-8-8h-24v-56c0-4.418-3.582-8-8-8h-256c-4.418 0-8 3.582-8 8v56h-24c-4.418 0-8 3.582-8 8v24h-8c-4.418 0-8 3.582-8 8v32h368v-32c0-4.418-3.582-8-8-8z" fill="#ffedbc"/></g><g><path d="m308.804 14.005c-3.036-3.795-7.634-6.005-12.494-6.005h-80.62c-4.86 0-9.458 2.209-12.494 6.005l-27.196 33.995h160z" fill="#fff"/></g><g><path d="m440 208h-368l-24-32h416z" fill="#ffb080"/></g><g><path d="m72 208v296h136v-200c0-26.51 21.49-48 48-48s48 21.49 48 48v200h136v-296z" fill="#ffedbc"/></g><g><path d="m440 504h-24v-256c0-8.837 7.163-16 16-16h8z" fill="#fff"/></g><g><path d="m336 328h104v64h-104z" fill="#ffb080"/></g><g><path d="m72 328h104v64h-104z" fill="#ffb080"/></g><g><path d="m88 144h336v-24c0-4.418-3.582-8-8-8h-320c-4.418 0-8 3.582-8 8z" fill="#fff"/></g><g><path d="m416 328h24v64h-24z" fill="#ffedbc"/></g><g><path d="m208 504h-24v-184c0-8.837 7.163-16 16-16h8z" fill="#fff"/></g><g><g><path d="m336.005 56c-2.347 0-4.672-1.028-6.252-3.003l-27.196-33.995c-1.527-1.908-3.804-3.002-6.247-3.002h-80.62c-2.443 0-4.72 1.094-6.247 3.002l-27.196 33.995c-2.761 3.45-7.796 4.01-11.245 1.249-3.45-2.76-4.009-7.794-1.25-11.244l27.196-33.995c4.58-5.724 11.411-9.007 18.742-9.007h80.62c7.331 0 14.162 3.283 18.741 9.008l27.196 33.995c2.76 3.45 2.201 8.484-1.25 11.244-1.475 1.18-3.239 1.753-4.992 1.753z" fill="#ffb080"/></g><g fill="#d97779"><path d="m432 136v-16c0-8.822-7.178-16-16-16h-16v-48c0-8.822-7.178-16-16-16h-256c-8.822 0-16 7.178-16 16v48h-16c-8.822 0-16 7.178-16 16v16c-8.822 0-16 7.178-16 16v24c0 4.418 3.582 8 8 8s8-3.582 8-8v-24h352v24c0 4.418 3.582 8 8 8s8-3.582 8-8v-24c0-8.822-7.178-16-16-16zm-304-80h256v48h-256zm288 80h-320v-16h320z"/><path d="m312 72h-112c-4.418 0-8 3.582-8 8s3.582 8 8 8h112c4.418 0 8-3.582 8-8s-3.582-8-8-8z"/></g><g><path d="m168 88c-4.418 0-8.04-3.582-8.04-8s3.542-8 7.96-8h.08c4.418 0 8 3.582 8 8s-3.582 8-8 8z" fill="#1e2e45"/></g><g><path d="m344 88c-4.418 0-8.04-3.582-8.04-8s3.542-8 7.96-8h.08c4.418 0 8 3.582 8 8s-3.582 8-8 8z" fill="#1e2e45"/></g><g fill="#d97779"><path d="m176 200c-4.418 0-8 3.582-8 8v112h-88v-112c0-4.418-3.582-8-8-8s-8 3.582-8 8v296c0 4.418 3.582 8 8 8s8-3.582 8-8v-104h88v104c0 4.418 3.582 8 8 8s8-3.582 8-8v-296c0-4.418-3.582-8-8-8zm-96 184v-48h88v48z"/><path d="m144 352h-40c-4.418 0-8 3.582-8 8s3.582 8 8 8h40c4.418 0 8-3.582 8-8s-3.582-8-8-8z"/></g><g><path d="m124 288c-13.234 0-24-10.766-24-24s10.766-24 24-24 24 10.766 24 24-10.766 24-24 24zm0-32c-4.411 0-8 3.589-8 8s3.589 8 8 8 8-3.589 8-8-3.589-8-8-8z" fill="#1e2e45"/></g><g><path d="m388 288c-13.234 0-24-10.766-24-24s10.766-24 24-24 24 10.766 24 24-10.766 24-24 24zm0-32c-4.411 0-8 3.589-8 8s3.589 8 8 8 8-3.589 8-8-3.589-8-8-8z" fill="#1e2e45"/></g><g fill="#d97779"><path d="m440 200c-4.418 0-8 3.582-8 8v112h-88.001v-112c0-4.418-3.582-8-8-8s-8 3.582-8 8v296c0 4.418 3.582 8 8 8s8-3.582 8-8v-24h88.001v24c0 4.418 3.582 8 8 8s8-3.582 8-8v-296c0-4.418-3.582-8-8-8zm-8 136v48h-88.001v-48zm-88.001 128v-64h88.001v64z"/><path d="m368 368h40c4.418 0 8-3.582 8-8s-3.582-8-8-8h-40c-4.418 0-8 3.582-8 8s3.582 8 8 8z"/></g><g><path d="m440 216h-368c-2.518 0-4.889-1.186-6.4-3.2l-24-32c-1.818-2.424-2.111-5.667-.755-8.378 1.355-2.71 4.125-4.422 7.155-4.422h416c3.03 0 5.8 1.712 7.155 4.422s1.063 5.954-.755 8.378l-24 32c-1.511 2.014-3.882 3.2-6.4 3.2zm-364-16h360l12-16h-384z" fill="#1e2e45"/></g><path d="m464 496h-152v-192c0-30.878-25.122-56-56-56s-56 25.122-56 56v192h-16v-48c0-4.418-3.582-8-8-8s-8 3.582-8 8v16h-88v-152c0-4.418-3.582-8-8-8s-8 3.582-8 8v184h-16c-4.418 0-8 3.582-8 8s3.582 8 8 8h416c4.418 0 8-3.582 8-8s-3.582-8-8-8zm-248-192c0-22.056 17.944-40 40-40s40 17.944 40 40v192h-80zm-136 176h88v16h-88z" fill="#1e2e45"/></g></g></svg>