<svg id="Capa_1" enable-background="new 0 0 512 512" height="512" viewBox="0 0 512 512" width="512" xmlns="http://www.w3.org/2000/svg"><g><g><path d="m268.829 8h-25.657c-9.982 0-17.528 9.041-15.742 18.862l12.57 69.138h32l12.57-69.138c1.786-9.821-5.759-18.862-15.741-18.862z" fill="#fff"/></g><g><path d="m279.871 97.431-15.742-2.862 12.57-69.138c.583-3.205-.833-5.484-1.729-6.557s-2.885-2.874-6.142-2.874h-25.657c-3.257 0-5.247 1.801-6.142 2.874-.896 1.073-2.312 3.353-1.729 6.557l12.57 69.138-15.742 2.862-12.57-69.138c-1.277-7.021.614-14.191 5.187-19.671 4.573-5.479 11.289-8.622 18.426-8.622h25.657c7.137 0 13.854 3.143 18.426 8.623 4.573 5.479 6.463 12.649 5.187 19.671z" fill="#ffb080"/></g><g><circle cx="256" cy="456" fill="#ffedbc" r="48"/></g><g><path d="m256 480v24c26.51 0 48-21.49 48-48h-24c0 13.255-10.745 24-24 24z" fill="#fff"/></g><g><path d="m435.145 379.055c-26.056-12.798-43.145-39.486-43.145-69.296v-74.195c0-76.23-62.381-140.968-138.598-139.54-73.912 1.385-133.402 61.733-133.402 135.976v77.76c0 29.81-17.089 56.498-43.146 69.295-8.002 3.93-12.854 12.299-12.854 21.215v15.73c0 8.836 7.164 16 16 16h352c8.836 0 16-7.164 16-16v-15.73c0-8.916-4.852-17.285-12.855-21.215z" fill="#ffedbc"/></g><g><path d="m151.617 145.315c14.724 4.03 30.102 1.908 42.795-6.573 17.132-11.447 37.528-18.314 59.439-18.727 29.156-.336 57.266 10.828 78.867 32.039 22.422 22 35.281 52.438 35.281 83.508v74.195c0 11.159 1.934 22.073 5.439 32.375 6.118-4.924 13.934-7.628 23.03-6.995-2.801-8.02-4.469-16.526-4.469-25.378v-74.062c0-74.821-58.848-138.413-133.658-139.678-43.063-.728-81.593 18.606-107.001 49.221.093.025.185.05.277.075z" fill="#fff"/></g><g><path d="m64 400h384v16c0 8.837-7.163 16-16 16h-352c-8.837 0-16-7.163-16-16z" fill="#ffb080"/></g><path d="m438.672 371.874c-23.492-11.539-38.672-35.92-38.672-62.115v-74.195c0-39.604-16.353-78.367-44.865-106.351-27.787-27.271-63.975-41.902-101.883-41.188-37.886.71-73.391 16.001-99.974 43.058-26.619 27.092-41.278 62.932-41.278 100.917v77.76c0 26.195-15.18 50.576-38.672 62.115-10.527 5.169-17.328 16.315-17.328 28.396v15.729c0 13.234 10.766 24 24 24h122.36c-1.555 5.181-2.36 10.573-2.36 16 0 30.878 25.122 56 56 56s56-25.122 56-56c0-5.427-.805-10.819-2.36-16h122.36c13.234 0 24-10.766 24-24v-15.729c0-12.081-6.801-23.227-17.328-28.397zm-310.672-62.115v-1.401c1.168.714 2.329 1.484 3.548 2.297 6.242 4.164 14.01 9.345 28.427 9.345 14.419 0 22.189-5.181 28.432-9.344 5.577-3.718 9.981-6.656 19.556-6.656 9.566 0 13.968 2.937 19.541 6.655 6.24 4.164 14.006 9.345 28.421 9.345 14.423 0 22.194-5.181 28.439-9.343 5.579-3.719 9.985-6.657 19.564-6.657 9.588 0 13.999 2.938 19.583 6.658 6.248 4.163 14.024 9.342 28.454 9.342s22.206-5.18 28.453-9.342c1.228-.818 2.401-1.593 3.583-2.313v1.415c0 6.826.846 13.549 2.44 20.046-6.332 1.847-10.812 4.818-14.894 7.537-5.584 3.72-9.994 6.658-19.583 6.658s-13.999-2.938-19.583-6.658c-6.248-4.162-14.023-9.342-28.453-9.342-14.423 0-22.195 5.181-28.439 9.343-5.579 3.719-9.985 6.657-19.564 6.657-9.567 0-13.968-2.937-19.541-6.655-6.24-4.164-14.006-9.345-28.42-9.345-14.42 0-22.189 5.181-28.433 9.344-5.577 3.719-9.981 6.656-19.555 6.656-9.57 0-13.974-2.937-19.548-6.655-4.059-2.707-8.532-5.685-14.868-7.537 1.594-6.499 2.44-13.223 2.44-20.05zm36.69-167.462c23.63-24.05 55.188-37.643 88.861-38.274.777-.015 1.552-.022 2.327-.022 32.737 0 63.924 12.956 88.048 36.632 25.468 24.994 40.074 59.596 40.074 94.931v55.058c-5.113 1.857-8.982 4.406-12.454 6.719-5.584 3.72-9.994 6.658-19.583 6.658s-13.999-2.938-19.583-6.658c-6.248-4.163-14.023-9.342-28.453-9.342-14.423 0-22.195 5.181-28.439 9.344-5.579 3.719-9.985 6.656-19.564 6.656-9.567 0-13.968-2.937-19.541-6.655-6.24-4.164-14.006-9.345-28.42-9.345-14.42 0-22.189 5.181-28.433 9.344-5.577 3.719-9.981 6.656-19.555 6.656-9.57 0-13.974-2.937-19.548-6.655-3.455-2.304-7.314-4.868-12.427-6.728v-58.616c0-33.765 13.03-65.622 36.69-89.703zm-84.309 243.938c17.886-8.785 31.852-23.619 39.912-41.283 4.413 1.143 7.518 3.211 11.255 5.703 6.242 4.164 14.01 9.345 28.427 9.345 14.419 0 22.189-5.181 28.432-9.344 5.577-3.719 9.981-6.656 19.556-6.656 9.566 0 13.968 2.937 19.541 6.655 6.24 4.164 14.006 9.345 28.421 9.345 14.423 0 22.194-5.181 28.439-9.343 5.579-3.719 9.985-6.657 19.564-6.657 9.588 0 13.999 2.938 19.583 6.658 6.248 4.162 14.023 9.342 28.453 9.342s22.205-5.18 28.453-9.342c3.721-2.478 6.853-4.562 11.288-5.708 8.061 17.666 22.026 32.5 39.914 41.286 2.569 1.262 4.677 3.291 6.138 5.765h-363.514c1.461-2.475 3.569-4.504 6.138-5.766zm215.619 69.765c0 22.056-17.944 40-40 40s-40-17.944-40-40c0-5.501 1.175-10.952 3.393-16h73.215c2.217 5.048 3.392 10.499 3.392 16zm136-32h-352c-4.411 0-8-3.589-8-8v-8h368v8c0 4.411-3.589 8-8 8z" fill="#d97779"/><g><path d="m200 272c-13.234 0-24-10.766-24-24s10.766-24 24-24 24 10.766 24 24-10.766 24-24 24zm0-32c-4.411 0-8 3.589-8 8s3.589 8 8 8 8-3.589 8-8-3.589-8-8-8z" fill="#ffb080"/></g><g><path d="m312 272c-13.234 0-24-10.766-24-24s10.766-24 24-24 24 10.766 24 24-10.766 24-24 24zm0-32c-4.411 0-8 3.589-8 8s3.589 8 8 8 8-3.589 8-8-3.589-8-8-8z" fill="#ffb080"/></g><path d="m344 424h-264c-4.411 0-8-3.589-8-8v-15.729c0-6.025 3.29-11.534 8.381-14.035 17.886-8.785 31.852-23.619 39.912-41.283 4.413 1.143 7.518 3.211 11.255 5.703 6.242 4.164 14.01 9.345 28.427 9.345 14.419 0 22.189-5.181 28.432-9.344 5.577-3.719 9.981-6.656 19.556-6.656 9.566 0 13.968 2.937 19.541 6.655 6.24 4.164 14.006 9.345 28.421 9.345 4.418 0 8-3.582 8-8s-3.582-8-8-8c-9.567 0-13.968-2.937-19.541-6.655-6.24-4.164-14.006-9.345-28.42-9.345-14.42 0-22.189 5.181-28.433 9.344-5.577 3.719-9.981 6.656-19.555 6.656-9.57 0-13.974-2.937-19.548-6.655-4.059-2.707-8.532-5.685-14.868-7.537 1.595-6.498 2.441-13.222 2.441-20.048v-53.761c0-4.418-3.582-8-8-8s-8 3.582-8 8v53.759c0 26.195-15.18 50.576-38.672 62.115-10.528 5.17-17.329 16.316-17.329 28.397v15.729c0 13.234 10.766 24 24 24h264c4.418 0 8-3.582 8-8s-3.582-8-8-8z" fill="#1e2e45"/></g></svg>